<?xml version="1.0" encoding="utf-8"?>
<!-- Generator: Adobe Illustrator 27.5.0, SVG Export Plug-In . SVG Version: 6.00 Build 0)  -->
<svg version="1.1" id="Layer_1" xmlns="http://www.w3.org/2000/svg" xmlns:xlink="http://www.w3.org/1999/xlink" x="0px" y="0px"
	 viewBox="0 0 378.91 65.13" style="enable-background:new 0 0 378.91 65.13;" xml:space="preserve">
<style type="text/css">
	.st0{fill:#FFFFFF;}
</style>
<g>
	<g>
		<path class="st0" d="M359.17,61.22c-2.04-1.95-3.06-4.47-3.06-7.55c0-3.08,1.02-5.59,3.06-7.55c2.04-1.95,4.64-2.93,7.8-2.93
			s5.74,0.98,7.74,2.93c2,1.96,3,4.47,3,7.55c0,3.08-1,5.6-3,7.55s-4.58,2.93-7.74,2.93S361.2,63.17,359.17,61.22z"/>
		<g>
			<path class="st0" d="M21.12,19.89h10.89v5.64H21.12v25.18c0,3.9,1.59,5.57,5.25,5.57c1.99,0,4.21-0.56,6.12-1.59l1.43,3.66
				c-3.66,3.74-8.43,5.8-14.15,5.8c-7.95,0-12.16-3.74-12.16-12V25.53H2.19v-3.97c5.17-1.91,10.73-6.52,14.79-11.53h4.13V19.89z"/>
			<path class="st0" d="M55.35,30.56c2.46-8.04,6.6-11.17,12-11.17c1.67,0,2.62,0.16,3.5,0.72v11.53h-1.91
				c-4.93,0-9.7,0.4-13.59,3.66v18.76c0,3.58,1.83,3.82,6.6,4.45v4.85H36.83V58.5c3.5-0.48,5.09-0.87,5.09-4.53V31.32l-4.69-4.29
				V24.4l15.5-4.29h2.62V30.56z"/>
			<path class="st0" d="M108.83,52.06c0,2.54,0.48,4.37,2.62,4.37c0.64,0,2.31-0.16,3.42-0.48l0.64,3.58
				c-2.7,2.62-6.76,4.61-10.89,4.61c-4.53,0-7.39-2.94-8.75-7.24c-2.54,3.42-6.44,7-12.72,7c-6.84,0-11.13-4.37-11.13-11.13
				c0-7.08,5.25-9.7,10.81-11.61l12.8-4.45v-4.69c0-5.88-1.35-8.27-5.17-8.27c-3.1,0-4.53,2.07-4.53,5.17
				c0,1.75,0.16,3.34,0.64,5.17l-8.82,1.35c-2.07-0.87-3.02-2.86-3.02-5.33c0-7.47,7.16-10.97,17.09-10.97
				c10.97,0,17.09,3.82,17.09,16.54C108.91,36.48,108.83,51.03,108.83,52.06z M95.63,54.37V41.01l-6.04,2.39
				c-2.78,1.11-4.05,2.94-4.05,6.04c0,3.97,1.91,6.44,5.25,6.44C92.77,55.88,94.04,55.4,95.63,54.37z"/>
			<path class="st0" d="M135.86,53.97c0,3.66,1.51,4.05,5.09,4.53v4.85h-23.61V58.5c3.5-0.48,5.09-0.87,5.09-4.53V30.8l-4.69-4.37
				v-2.31l15.58-4.05h2.54V53.97z"/>
			<path class="st0" d="M161.96,53.97c0,3.66,1.51,4.05,5.09,4.53v4.85h-23.53V58.5c3.66-0.48,5.09-0.87,5.09-4.53V13.11l-4.69-4.29
				v-2.7l15.58-3.26h2.46V53.97z"/>
			<path class="st0" d="M188.18,27.42c3.5-3.82,8.51-8.27,15.34-8.27c7.63,0,11.93,4.13,11.93,13.04v21.78
				c0,3.66,1.51,4.05,5.09,4.53v4.85h-23.29V58.5c3.58-0.48,4.77-0.87,4.77-4.53V33.46c0-3.74-1.35-5.56-5.41-5.56
				c-3.26,0-6.04,0.87-8.43,1.91v24.17c0,3.66,1.27,4.05,4.77,4.53v4.85h-23.29V58.5c3.66-0.48,5.09-0.87,5.09-4.53V13.11
				l-4.69-4.29v-2.7l15.74-3.26h2.38V27.42z"/>
			<path class="st0" d="M257.81,37.28v2.94h-26.47c0,8.35,5.17,13.59,12.56,13.59c5.25,0,8.9-2.07,11.69-5.64l2.38,1.51
				c-2.07,8.67-8.43,14.47-18.36,14.47c-11.77,0-20.19-8.27-20.19-21.07c0-14.47,9.46-23.93,21.23-23.93
				C251.93,19.15,257.81,27.26,257.81,37.28z M231.49,35.69h14.63c-0.08-6.76-2.23-11.37-6.84-11.37
				C234.44,24.32,232.05,29.57,231.49,35.69z"/>
			<path class="st0" d="M297.77,52.06c0,2.54,0.48,4.37,2.62,4.37c0.64,0,2.31-0.16,3.42-0.48l0.64,3.58
				c-2.7,2.62-6.76,4.61-10.89,4.61c-4.53,0-7.39-2.94-8.75-7.24c-2.54,3.42-6.44,7-12.72,7c-6.84,0-11.13-4.37-11.13-11.13
				c0-7.08,5.25-9.7,10.81-11.61l12.8-4.45v-4.69c0-5.88-1.35-8.27-5.17-8.27c-3.1,0-4.53,2.07-4.53,5.17
				c0,1.75,0.16,3.34,0.64,5.17l-8.82,1.35c-2.07-0.87-3.02-2.86-3.02-5.33c0-7.47,7.16-10.97,17.09-10.97
				c10.97,0,17.09,3.82,17.09,16.54C297.85,36.48,297.77,51.03,297.77,52.06z M284.57,54.37V41.01l-6.04,2.39
				c-2.78,1.11-4.05,2.94-4.05,6.04c0,3.97,1.91,6.44,5.25,6.44C281.71,55.88,282.98,55.4,284.57,54.37z"/>
			<path class="st0" d="M334.93,56.52c-2.62,4.53-6.6,7.63-13.2,7.63c-9.78,0-16.46-7.63-16.46-20.27
				c0-15.42,9.46-24.25,21.94-24.25c3.34,0,6.2,0.87,7.71,2.39v-8.9l-4.69-4.29v-2.7l15.66-3.26h2.46v49.53
				c0,2.7,0.64,4.05,3.26,4.21h1.99v4.93l-16.06,2.62h-2.62V56.52z M318.95,39.9c0,9.54,3.74,15.82,10.34,15.82
				c2.07,0,4.05-0.64,5.64-1.59V33.06c0-5.72-1.91-8.51-6.52-8.51C322.37,24.56,318.95,30.84,318.95,39.9z"/>
		</g>
	</g>
	<g>
		<path class="st0" d="M122.3,15.37c-1.5-1.44-2.25-3.29-2.25-5.55c0-2.26,0.75-4.11,2.25-5.55c1.5-1.44,3.41-2.16,5.74-2.16
			c2.33,0,4.22,0.72,5.69,2.16c1.47,1.44,2.2,3.29,2.2,5.55c0,2.27-0.73,4.12-2.2,5.55s-3.37,2.16-5.69,2.16
			C125.71,17.53,123.8,16.81,122.3,15.37z"/>
	</g>
</g>
</svg>
