<?xml version="1.0" encoding="utf-8"?>
<!-- Generator: Adobe Illustrator 27.5.0, SVG Export Plug-In . SVG Version: 6.00 Build 0)  -->
<svg version="1.1" id="Layer_1" xmlns="http://www.w3.org/2000/svg" xmlns:xlink="http://www.w3.org/1999/xlink" x="0px" y="0px"
	 viewBox="0 0 443 111.32" style="enable-background:new 0 0 443 111.32;" xml:space="preserve">
<style type="text/css">
	.st0{fill:#FFFFFF;}
</style>
<g>
	<path class="st0" d="M84.7,71.78c-1.91,5.13-5.12,9.43-9.68,12.9c-5.39,4.11-11.45,6.16-18.18,6.16c-6.23,0-11.8-1.48-16.7-4.45
		c-4.9-2.97-8.71-7.13-11.43-12.47s-4.08-11.43-4.08-18.26S26,42.77,28.72,37.48s6.53-9.43,11.43-12.39
		c4.9-2.97,10.46-4.45,16.7-4.45c6.92,0,13.08,2.1,18.48,6.31c4.63,3.61,7.81,8.09,9.56,13.42l21.71-7.9
		c-1.67-4.69-4.1-9.03-7.31-13.01C94.35,13.31,88.14,8.54,80.67,5.12C73.19,1.71,65.11,0,56.4,0C45.61,0,35.94,2.35,27.38,7.05
		c-8.56,4.7-15.26,11.28-20.11,19.74C2.42,35.25,0,44.87,0,55.66c0,10.79,2.42,20.41,7.27,28.87c4.85,8.46,11.55,15.04,20.11,19.74
		c8.56,4.7,18.23,7.05,29.02,7.05c8.91,0,17.12-1.66,24.64-4.97c7.52-3.31,13.73-7.96,18.63-13.95c3.15-3.85,5.52-8.04,7.14-12.57
		L84.7,71.78z"/>
	<path class="st0" d="M403.86,105.05c-4.27-4.18-6.4-9.51-6.4-15.99s2.13-11.81,6.4-15.99c4.26-4.18,9.72-6.27,16.38-6.27
		c6.65,0,12.11,2.09,16.37,6.27c4.26,4.18,6.4,9.51,6.4,15.99s-2.13,11.81-6.4,15.99c-4.27,4.18-9.72,6.27-16.37,6.27
		C413.58,111.32,408.12,109.23,403.86,105.05z"/>
	<path class="st0" d="M113.74,2.82h34.14l27.83,71.01h1.48l27.53-71.01h185.69V108.5H215.11V35.77h-1.48l-27.16,72.73h-20.04
		l-27.16-72.73h-1.48v72.73h-24.04V2.82z"/>
</g>
</svg>
